<svg width="256" height="263" viewBox="0 0 256 263" fill="none" xmlns="http://www.w3.org/2000/svg">
<path d="M107 13.6273C119.792 6.24194 135.506 6.12608 148.389 13.2806L149 13.6273L219.378 54.2591C232.373 61.7617 240.378 75.6272 240.378 90.6322V171.898C240.378 186.903 232.373 200.768 219.378 208.271L149 248.903C136.005 256.405 119.995 256.405 107 248.903L36.6221 208.271C23.6274 200.768 15.6222 186.903 15.6221 171.898V90.6322C15.6222 75.6272 23.6274 61.7617 36.6221 54.2591L107 13.6273Z" fill="url(#paint0_linear_4046_109)" stroke="#E5E5E5" stroke-width="16"/>
<path d="M75.5 87.265C73.5109 87.265 71.6032 87.9454 70.1967 89.1565C68.7902 90.3676 68 92.0102 68 93.7229V106.639C68 108.352 68.7902 109.994 70.1967 111.205C71.6032 112.416 73.5109 113.097 75.5 113.097H180.5C182.489 113.097 184.397 112.416 185.803 111.205C187.21 109.994 188 108.352 188 106.639V93.7229C188 92.0102 187.21 90.3676 185.803 89.1565C184.397 87.9454 182.489 87.265 180.5 87.265H165.5C163.511 87.265 161.603 87.9454 160.197 89.1565C158.79 90.3676 158 92.0102 158 93.7229C158 97.2895 155.109 100.181 151.542 100.181H149.458C145.891 100.181 143 97.2895 143 93.7229C143 92.0102 142.21 90.3676 140.803 89.1565C139.397 87.9454 137.489 87.265 135.5 87.265H120.5C118.511 87.265 116.603 87.9454 115.197 89.1565C113.79 90.3676 113 92.0102 113 93.7229C113 97.2895 110.109 100.181 106.542 100.181H104.458C100.891 100.181 98 97.2895 98 93.7229C98 92.0102 97.2098 90.3676 95.8033 89.1565C94.3968 87.9454 92.4891 87.265 90.5 87.265H75.5ZM91.6531 126.013C86.6852 126.013 82.4706 129.66 81.7569 134.576L69.2031 221.052C68.507 225.848 71.3491 230.452 75.9478 231.979L124.848 248.218C126.895 248.898 129.105 248.898 131.152 248.218L180.052 231.979C184.651 230.452 187.493 225.848 186.797 221.052L174.243 134.576C173.529 129.66 169.315 126.013 164.347 126.013H91.6531ZM128 151.844C136.31 151.844 143 157.605 143 164.76V184.134C143 185.847 142.21 187.49 140.803 188.701C139.397 189.912 137.489 190.592 135.5 190.592H120.5C118.511 190.592 116.603 189.912 115.197 188.701C113.79 187.49 113 185.847 113 184.134V164.76C113 157.605 119.69 151.844 128 151.844Z" fill="#E5E5E5"/>
<defs>
<linearGradient id="paint0_linear_4046_109" x1="-11" y1="50.6986" x2="267" y2="211.831" gradientUnits="userSpaceOnUse">
<stop offset="0.495192" stop-color="#64748B"/>
<stop offset="1" stop-color="#334155"/>
</linearGradient>
</defs>
</svg>
