<svg width="256" height="263" viewBox="0 0 256 263" fill="none" xmlns="http://www.w3.org/2000/svg">
<path d="M107 13.6273C119.995 6.1247 136.005 6.1247 149 13.6273L219.378 54.2591C232.373 61.7617 240.378 75.6272 240.378 90.6322V171.898C240.378 186.903 232.373 200.768 219.378 208.271L149 248.903C136.005 256.405 119.995 256.405 107 248.903L36.6221 208.271C23.6274 200.768 15.6222 186.903 15.6221 171.898V90.6322C15.6222 75.6272 23.6274 61.7617 36.6221 54.2591L107 13.6273Z" fill="url(#paint0_linear_4046_109)" stroke="#E5E5E5" stroke-width="16"/>
<path d="M82.5 50.265C80.7761 50.265 79.1228 50.9454 77.9038 52.1565C76.6848 53.3676 76 55.0102 76 56.7229V69.6388C76 71.3516 76.6848 72.9942 77.9038 74.2053C79.1228 75.4164 80.7761 76.0968 82.5 76.0968H173.5C175.224 76.0968 176.877 75.4164 178.096 74.2053C179.315 72.9942 180 71.3516 180 69.6388V56.7229C180 55.0102 179.315 53.3676 178.096 52.1565C176.877 50.9454 175.224 50.265 173.5 50.265H160.5C158.776 50.265 157.123 50.9454 155.904 52.1565C154.685 53.3676 154 55.0102 154 56.7229C154 60.2895 151.067 63.1809 147.5 63.1809C143.933 63.1809 141 60.2895 141 56.7229C141 55.0102 140.315 53.3676 139.096 52.1565C137.877 50.9454 136.224 50.265 134.5 50.265H121.5C119.776 50.265 118.123 50.9454 116.904 52.1565C115.685 53.3676 115 55.0102 115 56.7229C115 60.2895 112.067 63.1809 108.5 63.1809C104.933 63.1809 102 60.2895 102 56.7229C102 55.0102 101.315 53.3676 100.096 52.1565C98.8772 50.9454 97.2239 50.265 95.5 50.265H82.5ZM97.8207 89.0127C92.7805 89.0127 88.5281 92.7636 87.8989 97.7644L76.9789 184.559C76.4041 189.128 79.023 193.498 83.3226 195.146L124.422 210.894C126.726 211.777 129.274 211.777 131.578 210.894L172.677 195.146C176.977 193.498 179.596 189.128 179.021 184.559L168.101 97.7644C167.472 92.7636 163.219 89.0127 158.179 89.0127H97.8207ZM128 114.844C135.202 114.844 141 120.605 141 127.76V147.134C141 148.847 140.315 150.49 139.096 151.701C137.877 152.912 136.224 153.592 134.5 153.592H121.5C119.776 153.592 118.123 152.912 116.904 151.701C115.685 150.49 115 148.847 115 147.134V127.76C115 120.605 120.798 114.844 128 114.844Z" fill="#E5E5E5"/>
<defs>
<linearGradient id="paint0_linear_4046_109" x1="-11" y1="50.6986" x2="267" y2="211.831" gradientUnits="userSpaceOnUse">
<stop offset="0.495192" stop-color="#64748B"/>
<stop offset="1" stop-color="#334155"/>
</linearGradient>
</defs>
</svg>
