<svg width="278" height="278" viewBox="0 0 278 278" fill="none" xmlns="http://www.w3.org/2000/svg">
<g clip-path="url(#clip0_4210_13)">
<path d="M152.481 10.7197L165.819 12.832L178.866 16.3291L191.453 21.1602L203.494 27.2949L214.816 34.6475L225.31 43.1455L234.854 52.6895L243.352 63.1826L250.704 74.5049L256.839 86.5459L261.67 99.1328L265.167 112.18L267.279 125.518L267.985 139L267.279 152.481L265.167 165.819L261.67 178.866L256.839 191.453L250.704 203.494L243.352 214.816L234.854 225.31L225.31 234.854L214.816 243.352L203.494 250.704L191.453 256.839L178.866 261.67L165.819 265.167L152.481 267.279L139 267.985L125.518 267.279L112.18 265.167L99.1328 261.67L86.5459 256.839L74.5049 250.704L63.1826 243.352L52.6895 234.854L43.1455 225.31L34.6475 214.816L27.2949 203.494L21.1602 191.453L16.3291 178.866L12.832 165.819L10.7197 152.481L10.0137 139L10.7197 125.518L12.832 112.18L16.3291 99.1328L21.1602 86.5459L27.2949 74.5049L34.6475 63.1826L43.1455 52.6895L52.6895 43.1455L63.1826 34.6475L74.5049 27.2949L86.5459 21.1602L99.1328 16.3291L112.18 12.832L125.518 10.7197L139 10.0137L152.481 10.7197Z" fill="url(#paint0_linear_4210_13)" stroke="#F5F5F5" stroke-width="20"/>
<mask id="mask0_4210_13" style="mask-type:alpha" maskUnits="userSpaceOnUse" x="0" y="0" width="278" height="278">
<path d="M139 0L153.529 0.761459L167.9 3.03749L181.953 6.80315L195.536 12.0172L208.5 18.6225L220.702 26.5466L232.009 35.7029L242.297 45.9908L251.453 57.2979L259.378 69.5L265.983 82.4636L271.197 96.0466L274.963 110.1L277.239 124.471L278 139L277.239 153.529L274.963 167.9L271.197 181.953L265.983 195.536L259.378 208.5L251.453 220.702L242.297 232.009L232.009 242.297L220.702 251.453L208.5 259.378L195.536 265.983L181.953 271.197L167.9 274.963L153.529 277.239L139 278L124.471 277.239L110.1 274.963L96.0466 271.197L82.4636 265.983L69.5 259.378L57.2979 251.453L45.9908 242.297L35.7029 232.009L26.5466 220.702L18.6225 208.5L12.0172 195.536L6.80315 181.953L3.03749 167.9L0.761459 153.529L0 139L0.761459 124.471L3.03749 110.1L6.80315 96.0466L12.0172 82.4636L18.6225 69.5L26.5466 57.2979L35.7029 45.9908L45.9908 35.7029L57.2979 26.5466L69.5 18.6225L82.4636 12.0172L96.0466 6.80315L110.1 3.03749L124.471 0.761459L139 0Z" fill="url(#paint1_linear_4210_13)"/>
</mask>
<g mask="url(#mask0_4210_13)">
<path d="M229.75 278.52H213.25V174.809L224.913 163.16C226.452 161.635 227.672 159.82 228.503 157.82C229.333 155.82 229.757 153.676 229.75 151.511V105.48C229.75 101.109 228.012 96.9175 224.917 93.8269C221.823 90.7363 217.626 89 213.25 89H192.625C190.437 89 188.339 89.8681 186.791 91.4134C185.244 92.9587 184.375 95.0546 184.375 97.24V121.96H159.625V97.24C159.625 95.0546 158.756 92.9587 157.209 91.4134C155.661 89.8681 153.563 89 151.375 89H126.625C124.437 89 122.339 89.8681 120.791 91.4134C119.244 92.9587 118.375 95.0546 118.375 97.24V121.96H93.625V97.24C93.625 95.0546 92.7558 92.9587 91.2086 91.4134C89.6615 89.8681 87.563 89 85.375 89H64.75C60.3739 89 56.1771 90.7363 53.0827 93.8269C49.9884 96.9175 48.25 101.109 48.25 105.48V151.511C48.2431 153.676 48.6671 155.82 49.4974 157.82C50.3277 159.82 51.5477 161.635 53.0866 163.16L64.75 174.809V278.52H48.25C46.062 278.52 43.9635 279.388 42.4164 280.933C40.8692 282.479 40 284.575 40 286.76C40 288.945 40.8692 291.041 42.4164 292.587C43.9635 294.132 46.062 295 48.25 295H229.75C231.938 295 234.036 294.132 235.584 292.587C237.131 291.041 238 288.945 238 286.76C238 284.575 237.131 282.479 235.584 280.933C234.036 279.388 231.938 278.52 229.75 278.52ZM122.5 229.08C122.5 224.709 124.238 220.517 127.333 217.427C130.427 214.336 134.624 212.6 139 212.6C143.376 212.6 147.573 214.336 150.667 217.427C153.762 220.517 155.5 224.709 155.5 229.08V278.52H122.5V229.08Z" fill="#F5F5F5"/>
</g>
</g>
<defs>
<linearGradient id="paint0_linear_4210_13" x1="1.24548e-06" y1="58.6362" x2="278" y2="219.364" gradientUnits="userSpaceOnUse">
<stop offset="0.0001" stop-color="#0A0A0A"/>
<stop offset="0.7" stop-color="#244664"/>
<stop offset="1" stop-color="#5A89A8"/>
</linearGradient>
<linearGradient id="paint1_linear_4210_13" x1="1.24548e-06" y1="58.6362" x2="278" y2="219.364" gradientUnits="userSpaceOnUse">
<stop offset="0.0001" stop-color="#0A0A0A"/>
<stop offset="0.7" stop-color="#244664"/>
<stop offset="1" stop-color="#5A89A8"/>
</linearGradient>
<clipPath id="clip0_4210_13">
<rect width="278" height="278" fill="white"/>
</clipPath>
</defs>
</svg>
